<?xml version="1.0"?>
<svg xmlns="http://www.w3.org/2000/svg" height="512px" viewBox="-80 0 512 512" width="512px"><g><path d="m325.15625 212.773438c-13.714844-34.277344-32.78125-69.832032-56.675781-105.675782-40.527344-60.789062-80.527344-101.023437-82.207031-102.703125-2.8125-2.816406-6.628907-4.394531-10.609376-4.394531-3.976562 0-7.792968 1.578125-10.605468 4.394531-1.679688 1.683594-41.679688 41.914063-82.207032 102.703125-23.894531 35.84375-42.960937 71.398438-56.671874 105.675782-17.371094 43.425781-26.179688 84.996093-26.179688 123.5625 0 96.859374 78.804688 175.664062 175.664062 175.664062 96.863282 0 175.667969-78.804688 175.667969-175.667969 0-38.5625-8.808593-80.132812-26.175781-123.558593zm-149.492188 218.890624c-52.5625 0-95.332031-42.765624-95.332031-95.332031 0-8.28125 6.71875-15 15-15 8.285157 0 15 6.71875 15 15 0 36.023438 29.308594 65.332031 65.332031 65.332031 8.285157 0 15 6.71875 15 15 0 8.285157-6.714843 15-15 15zm0 0" data-original="#000000" class="active-path" data-old_color="#000000" fill="#716A72"/></g> </svg>
